# xmcd
#
# Track frame offsets: 
#        150
#        14670
#        27725
#        47617
#        65522
#        79915
#        95467
#        111967
#        127677
#        145490
#        161530
#        178132
#        193967
#        210635
#        223532
#        236972
#
# Disc length: 3376 seconds
#
# Revision: 17
# Processed by: cddbd v1.5.2PL0 Copyright (c) Steve Scherf et al.
# Submitted via: ExactAudioCopy v0.99pb5
#
DISCID=f20d2e10
DTITLE=Al Bano and Romina Power - Felicita (Gold Serie)
DYEAR=1985
DGENRE=Italo Pop
TTITLE0=Felicità
TTITLE1=Prima notte d'amore
TTITLE2=Sharazan
TTITLE3=L'amore è
TTITLE4=Meditando
TTITLE5=Canzone blu
TTITLE6=Magic oh magic
TTITLE7=Anche tu
TTITLE8=Perché
TTITLE9=Grazie
TTITLE10=Che angelo sei
TTITLE11=Angeli
TTITLE12=u, soltanto tu (mi hai fatto innamorare)
TTITLE13=Gli innamorati
TTITLE14=It's forever
TTITLE15=Ciao, auf Wiedersehen, Goodbye
EXTD=Gold-Serie\nAAD BMG Ariola 297097-200\n4007192 970971\n YEAR: 198
EXTD=5
EXTT0=
EXTT1=
EXTT2=
EXTT3=
EXTT4=
EXTT5=
EXTT6=
EXTT7=
EXTT8=
EXTT9=
EXTT10=
EXTT11=
EXTT12=
EXTT13=
EXTT14=
EXTT15=
PLAYORDER=
